<?xml version="1.0" encoding="UTF-8"?>
<svg id="Layer_1" xmlns="http://www.w3.org/2000/svg" version="1.1" viewBox="0 0 235.28 32.89">
  <!-- Generator: Adobe Illustrator 30.2.1, SVG Export Plug-In . SVG Version: 2.1.1 Build 1)  -->
  <defs>
    <style>
      .st0 {
        fill: #397dc1;
      }

      .st1 {
        font-family: BobogieGroovy, 'Bobogie Groovy';
        font-size: 27.29px;
      }

      .st1, .st2 {
        fill: #060606;
      }

      .st3 {
        fill: #faee39;
      }

      .st4 {
        fill: #81298d;
      }

      .st5 {
        fill: #f78f1e;
      }
    </style>
  </defs>
  <path class="st3" d="M46.78,10.87s-8.66-3.7-4.65-8.15c4.01-4.45,9.02,6.12,9.02,6.12,0,0,2.57-8.39,8.81-6.27,6.23,2.12-5.22,9.8-5.22,9.8"/>
  <path class="st5" d="M58.47,11.77s4.43-7.24,9.75-3.88c5.32,3.35-7.32,7.54-7.32,7.54,0,0,10.04,2.15,7.5,7.36-2.54,5.21-11.72-4.36-11.72-4.36"/>
  <path class="st4" d="M57.89,21.95s8.96,3.17,5.34,7.85c-3.61,4.68-9.53-5.56-9.53-5.56,0,0-1.84,8.52-8.24,6.79-6.4-1.74,4.36-10.09,4.36-10.09"/>
  <path class="st0" d="M46.52,20.25s-2.67,7.82-8.67,5.39c-6-2.43,5.44-8.58,5.44-8.58,0,0-10.34-.49-9.06-6.01,1.28-5.52,12.51,2.39,12.51,2.39"/>
  <text class="st1" transform="translate(4.33 24.34) scale(1.2 1)"><tspan x="0" y="0">Bl o msterhuset</tspan></text>
  <path class="st2" d="M34.27,21.61"/>
</svg>